<svg width="24" height="24" viewBox="0 0 24 24" fill="none" xmlns="http://www.w3.org/2000/svg">
<g id="shield 1">
<path id="Vector" d="M12 22C12 22 20 18 20 12V5L12 2L4 5V12C4 18 12 22 12 22Z" stroke="#222222" stroke-width="2" stroke-linecap="round" stroke-linejoin="round"/>
<path id="Vector_2" d="M14.7565 9.19129C14.8947 9.06724 15.0787 8.99866 15.2695 9.00002C15.4604 9.00138 15.6433 9.07258 15.7795 9.19859C15.9157 9.3246 15.9947 9.49556 15.9997 9.67541C16.0048 9.85526 15.9355 10.0299 15.8065 10.1625L11.8909 14.7783C11.8235 14.8466 11.7423 14.9015 11.6519 14.9396C11.5616 14.9776 11.464 14.9982 11.3651 14.9999C11.2661 15.0016 11.1678 14.9845 11.0761 14.9496C10.9843 14.9147 10.9009 14.8627 10.831 14.7968L8.23426 12.3492C8.16195 12.2857 8.10395 12.2091 8.06372 12.124C8.02349 12.0389 8.00186 11.9471 8.00011 11.8539C7.99837 11.7608 8.01655 11.6682 8.05357 11.5819C8.09059 11.4955 8.14569 11.417 8.21558 11.3511C8.28547 11.2852 8.36872 11.2333 8.46037 11.1984C8.55202 11.1635 8.65019 11.1464 8.74901 11.148C8.84784 11.1497 8.9453 11.1701 9.03559 11.208C9.12588 11.2459 9.20713 11.3006 9.27452 11.3687L11.3295 13.3048L14.7378 9.21164C14.744 9.20452 14.7505 9.19773 14.7574 9.19129H14.7565Z" fill="#222222"/>
</g>
</svg>
